<?xml version="1.0" encoding="iso-8859-1"?>
<!-- Generator: Adobe Illustrator 19.0.0, SVG Export Plug-In . SVG Version: 6.00 Build 0)  -->
<svg version="1.1" id="Layer_1" xmlns="http://www.w3.org/2000/svg" xmlns:xlink="http://www.w3.org/1999/xlink" x="0px" y="0px"
	 viewBox="0 0 504.135 504.135" style="enable-background:new 0 0 504.135 504.135;" xml:space="preserve">
<circle style="fill:#141160;" cx="252.068" cy="252.068" r="252.062"/>
<g>
	<path style="fill:#241B7A;" d="M430.315,430.307c-98.446,98.446-258.048,98.414-356.494-0.016
		c-98.399-98.43-98.399-258.016,0-356.462"/>
	<circle style="fill:#241B7A;" cx="252.068" cy="252.076" r="215.725"/>
</g>
<g>
	<path style="fill:#33248E;" d="M252.076,467.817C132.93,467.801,36.351,371.214,36.335,252.068
		c0.016-119.131,96.61-215.71,215.741-215.733"/>
	<circle style="fill:#33248E;" cx="252.068" cy="252.076" r="178.42"/>
</g>
<g>
	<path style="fill:#432DA0;" d="M125.888,378.248c-69.664-69.695-69.656-182.65,0.008-252.345
		c69.687-69.664,182.65-69.664,252.329,0"/>
	<circle style="fill:#432DA0;" cx="252.068" cy="252.076" r="133.79"/>
</g>
<path style="fill:#583CAF;" d="M252.068,385.857c-73.886,0-133.782-59.896-133.782-133.79c0-73.878,59.896-133.774,133.782-133.782"
	/>
<path style="fill:#AC79E2;" d="M82.604,464.272c0,0-4.892-4.844-14.06-13.911c-8.948-9.169-21.425-23.954-34.233-44.772
	C22.338,384.376,9.963,356.697,4.056,322.59c-5.868-33.831-6.546-74.232,5.963-115.68c3.214-10.287,6.388-20.897,11.225-31.082
	c4.049-10.555,9.87-20.472,15.565-30.736c12.288-19.85,27.231-39.424,45.757-56.123c3.915-4.049,9.342-8.137,14.659-12.201
	l7.987-6.097l8.31-5.191c5.545-3.466,11.138-7.01,17.211-9.704c5.963-2.851,11.863-6.081,18.251-8.2
	c24.97-9.956,52.571-14.927,80.597-14.651c56.084,0.473,114.16,23.513,155.467,67.655c41.952,43.481,59.132,111.498,42.165,171.173
	c-8.287,29.893-24.954,57.249-46.505,79.076c-10.169,9.988-24.615,20.645-38.337,27.443c-14.029,7.247-29.342,11.618-44.709,13.95
	c-30.878,4.923-62.755-1.182-89.718-15.336c-13.383-7.294-25.561-16.463-36.163-27.018l-7.144-8.034
	c-2.292-2.796-4.892-6.491-7.231-9.736c-4.324-6.632-7.885-13.17-10.823-20.228c-11.744-27.971-12.335-59.597-2.308-86.693
	c4.907-13.58,12.264-26.057,21.307-36.738l7.152-7.625l0.449-0.473l1.04-1.008l0.851-0.733l1.694-1.465l3.419-2.946
	c2.859-2.198,6.152-4.561,9.232-6.624c3.08-1.725,6.073-3.584,9.24-5.096c25.316-12.288,54.595-12.619,78.572-2.655
	c12.004,4.923,22.686,12.272,31.342,21.063l0.835,0.811l0.425,0.402c-0.039-0.032,1.875,2.079,1.197,1.363l1.213,1.591l2.434,3.159
	c1.615,2.237,3.214,3.915,4.829,6.577c1.623,2.954,3.182,5.939,4.647,8.94l2.174,4.458c0.551,1.481,0.851,2.954,1.3,4.419
	c7.231,23.276,2.891,48.073-9.405,65.898c-3.206,4.34-6.94,8.2-10.342,12.123c-0.417,0.386,0.488-0.37-1.016,0.969l-0.347,0.26
	l-0.701,0.504l-1.355,1.032l-2.71,2.048c-1.796,1.355-3.387,2.725-6.152,4.001c-2.505,1.245-4.986,2.473-7.452,3.694
	c-2.465,1.197-4.915,1.481-7.341,2.229c-4.789,1.599-9.728,1.694-14.517,1.953c-19.472,0.504-36.313-9.2-46.474-22
	c-1.095-1.481-2.166-2.796-3.198-4.403c-0.937-1.906-1.89-3.797-2.828-5.679c-2.127-3.742-2.324-7.491-3.419-11.075
	c-0.394-3.671-0.693-7.318-0.496-10.784c0.638-3.45,0.512-6.924,1.843-10.004c3.718-12.501,12.485-22.126,21.102-26.183
	c9.358-4.592,17.983-4.167,24.45-2.733c12.902,4.025,16.707,10.783,16.951,10.287c-0.134,0.48-4.955-5.742-17.4-8.074
	c-6.081-0.748-14.273,0.118-21.362,4.671c-1.796,0.796-3.552,2.623-5.419,4.317l-1.394,1.276c0.024,0.055-0.591,0.866-0.851,1.237
	c-0.709,0.985-1.434,1.969-2.143,2.97c-2.875,3.978-4.955,8.893-5.994,14.21c-0.922,2.576-0.417,5.474-0.74,8.239
	c0.11,2.82,0.662,5.687,1.197,8.531c1.166,2.623,1.623,5.884,3.34,8.05l2.079,3.631c1,1.292,2.332,2.647,3.497,3.986
	c8.641,8.696,22.252,15.573,36.596,13.8c3.529-0.536,7.144-0.772,10.5-2.292c1.638-0.677,3.608-1,4.986-1.906
	c1.426-0.874,2.836-1.694,4.285-2.473c2.505-1.048,7.373-6.105,9.129-7.538c2.237-3.23,4.813-6.262,6.94-9.602
	c7.979-13.777,9.846-31.681,3.812-47.506c-0.339-0.985-0.599-2.064-1-2.97l-1.473-2.426c-0.945-1.615-1.82-3.253-2.655-4.939
	c-1.126-1.796-3.293-3.923-4.892-5.892l-2.615-3.017l-1.308-1.512c-0.906-0.969,0.819,0.922,0.52,0.63l-0.331-0.268l-0.654-0.536
	c-6.751-6.065-14.761-10.823-23.521-13.785c-17.416-6.065-37.904-4.915-54.784,4.293c-2.111,1.126-4.08,2.544-6.128,3.749
	l-5.159,3.978l-3.261,3.088l-1.631,1.536l-0.835,0.788c-0.268,0.244,0.882-0.803,0.252-0.197l-0.307,0.37l-5.002,5.805
	c-6.215,8.097-11.083,17.313-14.155,27.175c-6.12,19.692-5.38,42.031,3.474,61.361c2.127,4.797,4.923,9.539,7.782,13.706
	c1.56,1.922,2.615,3.647,4.458,5.845l6.018,6.443c8.216,7.664,17.4,14.218,27.427,19.354c20.22,9.704,43.646,13.848,66.245,10.106
	c11.248-1.859,22.418-5.049,32.555-10.476c10.508-5.632,18.322-11.138,27.782-20.244c16.597-17.219,29.2-38.368,35.493-61.503
	c13.351-46.238,1.15-98.627-31.988-133.537c-16.148-17.109-36.47-32.004-58.108-41.85c-21.772-9.972-45.347-15.423-68.766-16.297
	c-46.86-1.851-92.711,14.935-125.661,42.614c-34.091,28.767-57.352,65.504-70.648,102.4c-3.545,9.169-5.514,18.645-8.137,27.695
	c-1.402,9.318-3.757,18.337-4.403,27.325c-0.677,8.972-1.961,17.77-1.489,26.356c0.032,4.293,0.071,8.523,0.095,12.705
	c0.047,4.183,0.764,8.247,1.095,12.296c3.245,32.335,12.28,59.786,21.945,81.353c10.657,21.157,20.645,36.935,28.672,47.096
	C78.288,458.908,82.604,464.272,82.604,464.272z"/>
<g>
	<path style="fill:#814FC1;" d="M210.455,248.933c0.937-2.087,1.985-4.096,3.253-5.845c0.725-1.008,1.441-1.993,2.143-2.97
		c0.26-0.378,0.882-1.189,0.859-1.245l1.386-1.268c1.867-1.694,3.631-3.521,5.419-4.324c0.417-0.268,0.866-0.41,1.3-0.654
		c0.307-0.473,0.488-1.024,0.819-1.473c0.717-1,1.441-1.993,2.143-2.97c0.26-0.37,0.874-1.182,0.851-1.237l0.693-0.638
		c-2.733,0.575-5.537,1.386-8.468,2.828c-1.103,0.52-2.198,1.142-3.308,1.835c-2.45,3.671-4.498,7.845-5.853,12.422
		C210.951,245.128,210.675,247.003,210.455,248.933z"/>
	<path style="fill:#814FC1;" d="M137.042,59.524c-6.396,2.111-12.288,5.341-18.251,8.2c-6.065,2.702-11.658,6.231-17.211,9.712
		l-8.302,5.183l-7.995,6.097c-5.325,4.064-10.744,8.153-14.659,12.201c-0.843,0.764-1.591,1.599-2.418,2.371
		c-12.099,13.139-22.481,27.396-31.405,41.819c-5.695,10.264-11.516,20.181-15.565,30.736c-4.836,10.185-8.011,20.795-11.225,31.082
		c-12.493,41.44-11.815,81.841-5.947,115.673c1.465,8.491,3.332,16.573,5.506,24.261c-0.764-4.726-1.434-9.523-1.93-14.494
		c-0.331-4.033-1.048-8.09-1.087-12.28c-0.024-4.183-0.071-8.413-0.102-12.705c-0.465-8.602,0.819-17.384,1.497-26.356
		c0.654-9.003,2.993-18.014,4.403-27.333c2.623-9.043,4.592-18.519,8.153-27.687c12.17-33.776,32.784-67.356,62.362-94.878
		c6.286-6.774,12.95-13.32,20.204-19.448c32.957-27.68,78.801-44.465,125.661-42.614c23.426,0.866,47.002,6.325,68.766,16.297
		c21.638,9.846,41.96,24.741,58.108,41.85c33.138,34.918,45.34,87.3,31.988,133.537c-6.294,23.135-18.889,44.284-35.493,61.503
		c-2.135,2.048-4.151,3.86-6.152,5.569c-1.867,2.182-3.781,4.309-5.782,6.372c-9.452,9.09-17.266,14.612-27.766,20.244
		c-10.153,5.427-21.315,8.617-32.555,10.461c-22.615,3.742-46.041-0.402-66.261-10.09c-10.027-5.136-19.212-11.705-27.42-19.354
		l-6.018-6.443c-1.843-2.213-2.899-3.923-4.458-5.86c-2.851-4.151-5.664-8.909-7.775-13.706c-8.862-19.306-9.61-41.645-3.474-61.345
		c3.064-9.862,7.932-19.086,14.155-27.183l4.986-5.805l0.323-0.378c0.614-0.607-0.528,0.441-0.26,0.197l0.827-0.78l1.631-1.536
		l3.261-3.088l2.064-1.583l4.096-4.766l0.307-0.37c0.63-0.607-0.52,0.441-0.252,0.197l0.835-0.788l1.631-1.536l3.261-3.088
		l5.159-3.978c2.056-1.205,4.025-2.623,6.128-3.749c16.888-9.208,37.368-10.358,54.784-4.293c8.759,2.954,16.77,7.712,23.521,13.785
		l0.654,0.536l0.331,0.268c0.291,0.291-1.434-1.591-0.52-0.63l1.308,1.512l2.615,3.017c1.599,1.969,3.773,4.096,4.892,5.892
		c0.827,1.694,1.709,3.332,2.655,4.939l1.473,2.426c0.402,0.906,0.662,1.985,1,2.97c6.034,15.825,4.159,33.729-3.812,47.506
		c-2.127,3.34-4.703,6.372-6.94,9.602c-1.599,1.292-5.679,5.459-8.31,7.018c-1.237,1.631-2.458,3.245-3.631,4.923
		c-1.757,1.418-6.617,6.491-9.121,7.538c-1.449,0.772-2.859,1.583-4.277,2.473c-1.386,0.89-3.356,1.229-5.002,1.906
		c-3.356,1.52-6.971,1.741-10.492,2.276c-3.096,0.386-6.136,0.307-9.129-0.063c6.672,2.584,13.958,4.064,21.717,3.86
		c4.781-0.26,9.72-0.354,14.517-1.953c2.426-0.756,4.868-1.032,7.341-2.229c2.465-1.213,4.947-2.45,7.452-3.694
		c2.773-1.276,4.364-2.647,6.152-4.001l1.126-0.843c1.15-1.371,2.347-2.71,3.411-4.151c12.304-17.849,16.636-42.63,9.413-65.906
		c-0.457-1.465-0.748-2.938-1.308-4.411l-2.174-4.466c-1.449-3.001-3.017-5.986-4.632-8.932c-1.631-2.67-3.214-4.348-4.836-6.569
		L300.322,197l-1.197-1.591c0.662,0.717-1.252-1.394-1.213-1.355l-0.418-0.402l-0.827-0.811
		c-8.665-8.799-19.354-16.132-31.35-21.063c-23.977-9.964-53.248-9.626-78.572,2.647c-3.159,1.52-6.152,3.379-9.247,5.096
		c-3.08,2.064-6.365,4.427-9.224,6.624l-2.592,2.237l-0.079,0.087c-9.043,10.673-16.4,23.15-21.307,36.738
		c-10.027,27.097-9.437,58.73,2.308,86.693c2.938,7.058,6.498,13.603,10.823,20.228c2.339,3.245,4.939,6.94,7.231,9.736l7.144,8.034
		c10.602,10.555,22.78,19.724,36.163,27.018c26.963,14.155,58.841,20.259,89.718,15.336c15.368-2.339,30.681-6.711,44.709-13.95
		c11.563-5.727,23.473-14.186,33.083-22.693c18.306-20.535,32.421-45.182,39.826-71.893c16.983-59.683-0.197-127.701-42.157-171.181
		c-41.354-44.15-99.415-67.19-155.498-67.671C189.612,44.59,162.011,49.56,137.042,59.524z"/>
</g>
<path style="fill:#22D0FF;" d="M421.54,39.879c0,0,4.884,4.836,14.052,13.903c8.948,9.169,21.433,23.962,34.233,44.765
	c11.981,21.22,24.355,48.9,30.247,83.015c5.884,33.824,6.546,74.224-5.963,115.673c-3.206,10.295-6.38,20.89-11.225,31.074
	c-4.049,10.555-9.862,20.48-15.557,30.736c-12.28,19.85-27.231,39.432-45.757,56.123c-3.923,4.049-9.342,8.137-14.659,12.201
	l-7.987,6.105l-8.31,5.167c-5.553,3.474-11.138,7.018-17.203,9.704c-5.986,2.859-11.871,6.089-18.259,8.2
	c-24.97,9.956-52.563,14.935-80.597,14.659c-56.084-0.48-114.168-23.505-155.475-67.679C77.13,360.06,59.95,292.035,76.941,232.368
	c8.263-29.877,24.93-57.234,46.505-79.076c10.153-9.98,24.6-20.645,38.321-27.435c14.029-7.255,29.326-11.611,44.717-13.966
	c30.862-4.923,62.748,1.197,89.71,15.344c13.391,7.302,25.561,16.463,36.155,27.01l7.152,8.042c2.3,2.788,4.884,6.483,7.231,9.728
	c4.332,6.64,7.885,13.178,10.823,20.228c11.737,27.971,12.335,59.605,2.292,86.717c-4.899,13.572-12.249,26.033-21.307,36.722
	l-7.136,7.617l-0.457,0.48l-1.032,1.016l-0.851,0.725l-1.694,1.481l-3.419,2.938c-2.859,2.198-6.152,4.569-9.232,6.632
	c-3.088,1.725-6.073,3.584-9.247,5.088c-25.309,12.28-54.587,12.619-78.557,2.647c-11.997-4.923-22.701-12.264-31.35-21.063
	l-0.835-0.803l-0.41-0.402c0.031,0.032-1.89-2.079-1.213-1.371l-1.213-1.583l-2.434-3.167c-1.631-2.213-3.214-3.907-4.829-6.569
	c-1.623-2.954-3.182-5.939-4.655-8.925l-2.174-4.474c-0.536-1.481-0.851-2.938-1.292-4.419c-7.223-23.276-2.883-48.073,9.405-65.898
	c3.198-4.324,6.94-8.208,10.335-12.123c0.433-0.394-0.488,0.37,1.048-0.977l0.323-0.26l0.693-0.512l1.363-1.024l2.718-2.048
	c1.804-1.347,3.403-2.725,6.152-4.001c2.497-1.237,5.002-2.473,7.459-3.679c2.458-1.197,4.907-1.481,7.326-2.237
	c4.789-1.599,9.736-1.686,14.541-1.953c19.456-0.496,36.289,9.2,46.458,21.992c1.087,1.489,2.166,2.804,3.19,4.403
	c0.945,1.914,1.89,3.812,2.836,5.679c2.127,3.742,2.324,7.499,3.419,11.083c0.402,3.663,0.693,7.31,0.496,10.784
	c-0.646,3.45-0.52,6.924-1.851,10.004c-3.718,12.509-12.477,22.126-21.094,26.183c-9.358,4.584-17.975,4.167-24.458,2.725
	c-12.895-4.017-16.707-10.784-16.951-10.295c0.142-0.48,4.97,5.75,17.408,8.09c6.081,0.756,14.273-0.126,21.354-4.663
	c1.804-0.819,3.56-2.647,5.427-4.34l1.378-1.26c-0.016-0.063,0.599-0.859,0.866-1.245c0.701-0.985,1.418-1.953,2.143-2.97
	c2.875-3.986,4.939-8.893,5.986-14.202c0.914-2.584,0.41-5.474,0.74-8.247c-0.118-2.812-0.662-5.695-1.197-8.531
	c-1.166-2.623-1.623-5.892-3.348-8.05l-2.072-3.647c-1-1.284-2.339-2.639-3.497-3.978c-8.641-8.696-22.26-15.573-36.596-13.792
	c-3.529,0.536-7.144,0.764-10.484,2.292c-1.662,0.677-3.623,1-5.01,1.906c-1.426,0.89-2.82,1.701-4.285,2.473
	c-2.497,1.04-7.365,6.113-9.114,7.53c-2.237,3.245-4.813,6.27-6.947,9.61c-7.979,13.777-9.846,31.673-3.812,47.506
	c0.354,0.969,0.599,2.048,1.016,2.954l1.449,2.434c0.953,1.615,1.827,3.261,2.655,4.955c1.134,1.788,3.293,3.923,4.892,5.892
	l2.623,3.001l1.315,1.52c0.898,0.969-0.819-0.906-0.52-0.63l0.315,0.276l0.662,0.536c6.743,6.065,14.769,10.815,23.52,13.785
	c17.416,6.065,37.896,4.907,54.776-4.309c2.119-1.126,4.08-2.521,6.136-3.742l5.159-3.986l3.261-3.096l1.631-1.536l0.835-0.772
	c0.268-0.26-0.874,0.788-0.252,0.181l0.307-0.37l4.994-5.797c6.223-8.105,11.083-17.321,14.163-27.183
	c6.105-19.692,5.372-42.031-3.474-61.353c-2.119-4.797-4.923-9.539-7.782-13.706c-1.568-1.938-2.623-3.647-4.458-5.868l-6.018-6.435
	c-8.216-7.656-17.4-14.21-27.427-19.361c-20.228-9.704-43.646-13.832-66.261-10.09c-11.232,1.851-22.402,5.033-32.555,10.468
	c-10.492,5.624-18.306,11.146-27.766,20.244c-16.605,17.235-29.216,38.384-35.509,61.519c-13.336,46.23-1.142,98.619,31.996,133.522
	c16.14,17.124,36.462,32.012,58.1,41.858c21.78,9.972,45.347,15.415,68.773,16.289c46.868,1.843,92.711-14.935,125.661-42.614
	c34.107-28.767,57.344-65.505,70.648-102.4c3.537-9.153,5.506-18.645,8.137-27.695c1.402-9.311,3.742-18.33,4.403-27.333
	c0.677-8.972,1.953-17.762,1.497-26.348c-0.039-4.293-0.087-8.531-0.102-12.705c-0.032-4.183-0.756-8.247-1.095-12.288
	c-3.245-32.327-12.272-59.778-21.945-81.361c-10.665-21.15-20.645-36.935-28.672-47.088C425.849,45.235,421.54,39.879,421.54,39.879
	z"/>
<g>
	<path style="fill:#14A2F2;" d="M437.483,399.059c11.406-12.642,21.323-26.23,29.846-40.015
		c5.695-10.264,11.508-20.181,15.557-30.736c4.844-10.185,8.019-20.787,11.225-31.074c9.649-31.972,11.406-63.275,9.035-91.451
		c-0.323,3.765-0.709,7.546-0.992,11.374c-0.662,9.003-3.009,18.022-4.411,27.333c-2.631,9.051-4.6,18.534-8.137,27.695
		c-12.493,34.643-33.879,69.081-64.677,96.981c-7.278,8.184-15.21,15.998-23.859,23.308c-32.957,27.68-78.793,44.465-125.661,42.614
		c-23.434-0.874-47.002-6.325-68.773-16.289c-21.638-9.846-41.96-24.741-58.1-41.858c-33.146-34.911-45.34-87.292-32.004-133.53
		c6.294-23.142,18.897-44.284,35.509-61.519c3.285-3.151,6.357-5.766,9.405-8.208c2.702-3.34,5.514-6.601,8.483-9.689
		c9.46-9.09,17.274-14.612,27.782-20.244c10.138-5.419,21.307-8.609,32.555-10.468c22.615-3.742,46.025,0.394,66.269,10.09
		c10.012,5.152,19.196,11.705,27.404,19.361l6.018,6.435c1.843,2.213,2.891,3.923,4.458,5.868c2.851,4.159,5.679,8.909,7.79,13.698
		c8.838,19.33,9.594,41.661,3.466,61.361c-3.064,9.862-7.924,19.078-14.155,27.168l-5.002,5.813l-0.299,0.37
		c-0.622,0.599,0.512-0.449,0.252-0.197l-0.843,0.788l-1.615,1.536l-3.277,3.096l-5.151,3.97c-0.118,0.063-0.221,0.142-0.339,0.197
		c-0.544,0.772-1.048,1.583-1.623,2.339l-4.994,5.797l-0.307,0.37c-0.622,0.599,0.52-0.449,0.252-0.181l-0.835,0.772l-1.631,1.536
		l-3.261,3.096l-5.159,3.986c-2.064,1.213-4.025,2.615-6.136,3.742c-16.888,9.216-37.36,10.366-54.776,4.309
		c-8.751-2.97-16.778-7.719-23.52-13.785l-0.662-0.536l-0.315-0.276c-0.299-0.276,1.426,1.599,0.52,0.63l-1.315-1.52l-1.827-2.111
		l0.142,0.197l1.221,1.583c-0.67-0.709,1.237,1.402,1.205,1.371l0.417,0.402l0.827,0.803c8.665,8.799,19.354,16.124,31.35,21.063
		c23.969,9.972,53.248,9.633,78.572-2.647c3.151-1.52,6.168-3.387,9.24-5.104c2.702-1.804,5.506-3.828,8.097-5.782
		c8.019-10.043,14.643-21.496,19.125-33.91c10.043-27.112,9.444-58.746-2.292-86.717c-2.938-7.058-6.491-13.596-10.823-20.228
		c-2.347-3.245-4.931-6.94-7.231-9.728l-7.152-8.042c-10.594-10.539-22.764-19.708-36.155-27.01
		c-26.963-14.139-58.849-20.259-89.71-15.344c-15.392,2.355-30.688,6.711-44.717,13.966c-10.153,5.025-20.708,12.186-29.641,19.621
		c-17.069,19.952-30.255,43.536-37.297,68.994c-16.983,59.676,0.197,127.709,42.157,171.166
		c41.299,44.15,99.383,67.198,155.475,67.679c28.034,0.26,55.619-4.71,80.581-14.659c6.396-2.127,12.296-5.341,18.267-8.2
		c6.057-2.694,11.642-6.231,17.195-9.704l8.31-5.183l7.995-6.089C429.346,406.014,433.789,402.525,437.483,399.059z"/>
	<path style="fill:#14A2F2;" d="M292.682,259.953l-0.677,0.63c-1.875,1.694-3.639,3.521-5.427,4.34
		c-1.607,1.016-3.277,1.812-4.962,2.489c-0.78,1.678-1.654,3.277-2.662,4.766c3.206-0.504,6.522-1.355,10.019-3.033
		c1.386-2.615,2.568-5.419,3.45-8.381C292.54,260.504,292.595,260.228,292.682,259.953z"/>
	<path style="fill:#14A2F2;" d="M202.672,236.369c2.135-3.34,4.71-6.372,6.947-9.61c1.757-1.418,6.617-6.491,9.114-7.53
		c0.756-0.394,1.465-0.843,2.198-1.268c2.048-3.127,4.458-6.034,6.577-9.098c1.764-1.426,6.617-6.491,9.137-7.538
		c1.441-0.78,2.851-1.591,4.269-2.473c1.213-0.796,2.883-1.166,4.387-1.701c-2.426-0.268-4.915-0.386-7.428-0.323
		c-4.797,0.268-9.744,0.354-14.541,1.953c-2.418,0.748-4.86,1.04-7.326,2.237c-2.458,1.205-4.962,2.442-7.459,3.679
		c-1.906,0.89-3.245,1.827-4.49,2.765c-0.071,0.095-0.165,0.181-0.228,0.284c-12.296,17.833-16.636,42.63-9.413,65.898
		c0.441,1.481,0.756,2.938,1.308,4.419l2.158,4.474c0.473,0.953,1.016,1.906,1.497,2.875c-0.158-0.52-0.339-1.032-0.52-1.536
		C192.826,268.042,194.693,250.146,202.672,236.369z"/>
</g>
<g>
	
		<ellipse transform="matrix(-0.7087 -0.7055 0.7055 -0.7087 -101.7386 549.7513)" style="fill:#F4EBC1;" cx="62.624" cy="295.879" rx="13.249" ry="1.205"/>
	
		<ellipse transform="matrix(0.7087 -0.7055 0.7055 0.7087 -190.4882 130.4142)" style="fill:#F4EBC1;" cx="62.685" cy="295.885" rx="13.249" ry="1.205"/>
	<ellipse style="fill:#F4EBC1;" cx="456.238" cy="188.399" rx="0.528" ry="5.805"/>
	<ellipse style="fill:#F4EBC1;" cx="456.238" cy="188.406" rx="5.813" ry="0.528"/>
	<ellipse style="fill:#F4EBC1;" cx="137.853" cy="119.475" rx="0.528" ry="5.805"/>
	<ellipse style="fill:#F4EBC1;" cx="137.853" cy="119.483" rx="5.813" ry="0.528"/>
	
		<ellipse transform="matrix(-0.7101 -0.7041 0.7041 -0.7101 491.3557 507.3044)" style="fill:#F4EBC1;" cx="350.114" cy="152.499" rx="17.487" ry="1.583"/>
	
		<ellipse transform="matrix(0.7095 -0.7047 0.7047 0.7095 -5.7187 291.0193)" style="fill:#F4EBC1;" cx="350.125" cy="152.446" rx="17.487" ry="1.583"/>
	<ellipse style="fill:#F4EBC1;" cx="308.538" cy="404.352" rx="1.591" ry="17.495"/>
	<ellipse style="fill:#F4EBC1;" cx="308.546" cy="404.352" rx="17.487" ry="1.583"/>
	<circle style="fill:#F4EBC1;" cx="56.988" cy="165.422" r="3.001"/>
	<circle style="fill:#F4EBC1;" cx="391.647" cy="72.222" r="2.993"/>
	<circle style="fill:#F4EBC1;" cx="355.847" cy="236.235" r="5.411"/>
	<circle style="fill:#F4EBC1;" cx="207.453" cy="79.949" r="5.404"/>
	<circle style="fill:#F4EBC1;" cx="429.063" cy="343.054" r="4.206"/>
	<path style="fill:#F4EBC1;" d="M142.067,434.292c0,2.324-1.875,4.198-4.183,4.198c-2.355,0-4.222-1.875-4.222-4.198
		c0-2.324,1.867-4.198,4.222-4.198C140.192,430.094,142.067,431.969,142.067,434.292z"/>
	<path style="fill:#F4EBC1;" d="M437.026,270.46c0,3.521-2.867,6.388-6.396,6.388c-3.552,0-6.396-2.859-6.396-6.388
		c0-3.537,2.836-6.396,6.396-6.396C434.159,264.056,437.026,266.924,437.026,270.46z"/>
</g>
<circle style="fill:#141160;" cx="252.068" cy="252.076" r="14.769"/>
<path style="fill:#00000A;" d="M252.068,237.306c8.153,0,14.769,6.609,14.769,14.769c0,8.153-6.617,14.769-14.769,14.769"/>
<g>
</g>
<g>
</g>
<g>
</g>
<g>
</g>
<g>
</g>
<g>
</g>
<g>
</g>
<g>
</g>
<g>
</g>
<g>
</g>
<g>
</g>
<g>
</g>
<g>
</g>
<g>
</g>
<g>
</g>
</svg>
