<svg xmlns="http://www.w3.org/2000/svg" viewBox="0 0 504.135 504.135">
	<circle cx="252.068" cy="252.068" r="252.062" fill="#141160" />
	<g fill="#241b7a">
		<path d="M430.315 430.307c-98.446 98.446-258.048 98.414-356.494-.016-98.399-98.43-98.399-258.016 0-356.462" />
		<circle cx="252.068" cy="252.076" r="215.725" />
	</g>
	<g fill="#33248e">
		<path
			d="M252.076 467.817c-119.146-.016-215.725-96.603-215.741-215.749.016-119.131 96.61-215.71 215.741-215.733" />
		<circle cx="252.068" cy="252.076" r="178.42" />
	</g>
	<g fill="#432da0">
		<path d="M125.888 378.248c-69.664-69.695-69.656-182.65.008-252.345 69.687-69.664 182.65-69.664 252.329 0" />
		<circle cx="252.068" cy="252.076" r="133.79" />
	</g>
	<path d="M252.068 385.857c-73.886 0-133.782-59.896-133.782-133.79 0-73.878 59.896-133.774 133.782-133.782"
		fill="#583caf" />
	<path
		d="M82.604 464.272s-4.892-4.844-14.06-13.911c-8.948-9.169-21.425-23.954-34.233-44.772-11.973-21.213-24.348-48.892-30.255-82.999-5.868-33.831-6.546-74.232 5.963-115.68 3.214-10.287 6.388-20.897 11.225-31.082 4.049-10.555 9.87-20.472 15.565-30.736 12.288-19.85 27.231-39.424 45.757-56.123 3.915-4.049 9.342-8.137 14.659-12.201l7.987-6.097 8.31-5.191c5.545-3.466 11.138-7.01 17.211-9.704 5.963-2.851 11.863-6.081 18.251-8.2 24.97-9.956 52.571-14.927 80.597-14.651 56.084.473 114.16 23.513 155.467 67.655C427 144.061 444.18 212.078 427.213 271.753c-8.287 29.893-24.954 57.249-46.505 79.076-10.169 9.988-24.615 20.645-38.337 27.443-14.029 7.247-29.342 11.618-44.709 13.95-30.878 4.923-62.755-1.182-89.718-15.336-13.383-7.294-25.561-16.463-36.163-27.018l-7.144-8.034c-2.292-2.796-4.892-6.491-7.231-9.736-4.324-6.632-7.885-13.17-10.823-20.228-11.744-27.971-12.335-59.597-2.308-86.693 4.907-13.58 12.264-26.057 21.307-36.738l7.152-7.625.449-.473 1.04-1.008.851-.733 1.694-1.465 3.419-2.946a180.463 180.463 0 019.232-6.624c3.08-1.725 6.073-3.584 9.24-5.096 25.316-12.288 54.595-12.619 78.572-2.655 12.004 4.923 22.686 12.272 31.342 21.063l.835.811.425.402c-.039-.032 1.875 2.079 1.197 1.363l1.213 1.591 2.434 3.159c1.615 2.237 3.214 3.915 4.829 6.577a209.084 209.084 0 014.647 8.94l2.174 4.458c.551 1.481.851 2.954 1.3 4.419 7.231 23.276 2.891 48.073-9.405 65.898-3.206 4.34-6.94 8.2-10.342 12.123-.417.386.488-.37-1.016.969l-.347.26-.701.504-1.355 1.032-2.71 2.048c-1.796 1.355-3.387 2.725-6.152 4.001-2.505 1.245-4.986 2.473-7.452 3.694-2.465 1.197-4.915 1.481-7.341 2.229-4.789 1.599-9.728 1.694-14.517 1.953-19.472.504-36.313-9.2-46.474-22-1.095-1.481-2.166-2.796-3.198-4.403-.937-1.906-1.89-3.797-2.828-5.679-2.127-3.742-2.324-7.491-3.419-11.075-.394-3.671-.693-7.318-.496-10.784.638-3.45.512-6.924 1.843-10.004 3.718-12.501 12.485-22.126 21.102-26.183 9.358-4.592 17.983-4.167 24.45-2.733 12.902 4.025 16.707 10.783 16.951 10.287-.134.48-4.955-5.742-17.4-8.074-6.081-.748-14.273.118-21.362 4.671-1.796.796-3.552 2.623-5.419 4.317l-1.394 1.276c.024.055-.591.866-.851 1.237-.709.985-1.434 1.969-2.143 2.97-2.875 3.978-4.955 8.893-5.994 14.21-.922 2.576-.417 5.474-.74 8.239.11 2.82.662 5.687 1.197 8.531 1.166 2.623 1.623 5.884 3.34 8.05l2.079 3.631c1 1.292 2.332 2.647 3.497 3.986 8.641 8.696 22.252 15.573 36.596 13.8 3.529-.536 7.144-.772 10.5-2.292 1.638-.677 3.608-1 4.986-1.906a87.02 87.02 0 014.285-2.473c2.505-1.048 7.373-6.105 9.129-7.538 2.237-3.23 4.813-6.262 6.94-9.602 7.979-13.777 9.846-31.681 3.812-47.506-.339-.985-.599-2.064-1-2.97l-1.473-2.426a80.334 80.334 0 01-2.655-4.939c-1.126-1.796-3.293-3.923-4.892-5.892l-2.615-3.017-1.308-1.512c-.906-.969.819.922.52.63l-.331-.268-.654-.536c-6.751-6.065-14.761-10.823-23.521-13.785-17.416-6.065-37.904-4.915-54.784 4.293-2.111 1.126-4.08 2.544-6.128 3.749l-5.159 3.978-3.261 3.088-1.631 1.536-.835.788c-.268.244.882-.803.252-.197l-.307.37-5.002 5.805c-6.215 8.097-11.083 17.313-14.155 27.175-6.12 19.692-5.38 42.031 3.474 61.361 2.127 4.797 4.923 9.539 7.782 13.706 1.56 1.922 2.615 3.647 4.458 5.845l6.018 6.443c8.216 7.664 17.4 14.218 27.427 19.354 20.22 9.704 43.646 13.848 66.245 10.106 11.248-1.859 22.418-5.049 32.555-10.476 10.508-5.632 18.322-11.138 27.782-20.244 16.597-17.219 29.2-38.368 35.493-61.503 13.351-46.238 1.15-98.627-31.988-133.537-16.148-17.109-36.47-32.004-58.108-41.85-21.772-9.972-45.347-15.423-68.766-16.297-46.86-1.851-92.711 14.935-125.661 42.614-34.091 28.767-57.352 65.504-70.648 102.4-3.545 9.169-5.514 18.645-8.137 27.695-1.402 9.318-3.757 18.337-4.403 27.325-.677 8.972-1.961 17.77-1.489 26.356.032 4.293.071 8.523.095 12.705.047 4.183.764 8.247 1.095 12.296 3.245 32.335 12.28 59.786 21.945 81.353 10.657 21.157 20.645 36.935 28.672 47.096a9523.56 9523.56 0 0112.424 15.393z"
		fill="#ac79e2" />
	<g fill="#814fc1">
		<path
			d="M210.455 248.933c.937-2.087 1.985-4.096 3.253-5.845.725-1.008 1.441-1.993 2.143-2.97.26-.378.882-1.189.859-1.245l1.386-1.268c1.867-1.694 3.631-3.521 5.419-4.324.417-.268.866-.41 1.3-.654.307-.473.488-1.024.819-1.473.717-1 1.441-1.993 2.143-2.97.26-.37.874-1.182.851-1.237l.693-.638c-2.733.575-5.537 1.386-8.468 2.828-1.103.52-2.198 1.142-3.308 1.835-2.45 3.671-4.498 7.845-5.853 12.422-.741 1.734-1.017 3.609-1.237 5.539z" />
		<path
			d="M137.042 59.524c-6.396 2.111-12.288 5.341-18.251 8.2-6.065 2.702-11.658 6.231-17.211 9.712l-8.302 5.183-7.995 6.097c-5.325 4.064-10.744 8.153-14.659 12.201-.843.764-1.591 1.599-2.418 2.371-12.099 13.139-22.481 27.396-31.405 41.819-5.695 10.264-11.516 20.181-15.565 30.736-4.836 10.185-8.011 20.795-11.225 31.082-12.493 41.44-11.815 81.841-5.947 115.673a237.445 237.445 0 005.506 24.261c-.764-4.726-1.434-9.523-1.93-14.494-.331-4.033-1.048-8.09-1.087-12.28-.024-4.183-.071-8.413-.102-12.705-.465-8.602.819-17.384 1.497-26.356.654-9.003 2.993-18.014 4.403-27.333 2.623-9.043 4.592-18.519 8.153-27.687 12.17-33.776 32.784-67.356 62.362-94.878 6.286-6.774 12.95-13.32 20.204-19.448 32.957-27.68 78.801-44.465 125.661-42.614 23.426.866 47.002 6.325 68.766 16.297 21.638 9.846 41.96 24.741 58.108 41.85 33.138 34.918 45.34 87.3 31.988 133.537-6.294 23.135-18.889 44.284-35.493 61.503a142.128 142.128 0 01-6.152 5.569 137.744 137.744 0 01-5.782 6.372c-9.452 9.09-17.266 14.612-27.766 20.244-10.153 5.427-21.315 8.617-32.555 10.461-22.615 3.742-46.041-.402-66.261-10.09-10.027-5.136-19.212-11.705-27.42-19.354l-6.018-6.443c-1.843-2.213-2.899-3.923-4.458-5.86-2.851-4.151-5.664-8.909-7.775-13.706-8.862-19.306-9.61-41.645-3.474-61.345 3.064-9.862 7.932-19.086 14.155-27.183l4.986-5.805.323-.378c.614-.607-.528.441-.26.197l.827-.78 1.631-1.536 3.261-3.088 2.064-1.583 4.096-4.766.307-.37c.63-.607-.52.441-.252.197l.835-.788 1.631-1.536 3.261-3.088 5.159-3.978c2.056-1.205 4.025-2.623 6.128-3.749 16.888-9.208 37.368-10.358 54.784-4.293 8.759 2.954 16.77 7.712 23.521 13.785l.654.536.331.268c.291.291-1.434-1.591-.52-.63l1.308 1.512 2.615 3.017c1.599 1.969 3.773 4.096 4.892 5.892a71.81 71.81 0 002.655 4.939l1.473 2.426c.402.906.662 1.985 1 2.97 6.034 15.825 4.159 33.729-3.812 47.506-2.127 3.34-4.703 6.372-6.94 9.602-1.599 1.292-5.679 5.459-8.31 7.018-1.237 1.631-2.458 3.245-3.631 4.923-1.757 1.418-6.617 6.491-9.121 7.538a69.164 69.164 0 00-4.277 2.473c-1.386.89-3.356 1.229-5.002 1.906-3.356 1.52-6.971 1.741-10.492 2.276-3.096.386-6.136.307-9.129-.063 6.672 2.584 13.958 4.064 21.717 3.86 4.781-.26 9.72-.354 14.517-1.953 2.426-.756 4.868-1.032 7.341-2.229 2.465-1.213 4.947-2.45 7.452-3.694 2.773-1.276 4.364-2.647 6.152-4.001l1.126-.843c1.15-1.371 2.347-2.71 3.411-4.151 12.304-17.849 16.636-42.63 9.413-65.906-.457-1.465-.748-2.938-1.308-4.411l-2.174-4.466c-1.449-3.001-3.017-5.986-4.632-8.932-1.631-2.67-3.214-4.348-4.836-6.569L300.322 197l-1.197-1.591c.662.717-1.252-1.394-1.213-1.355l-.418-.402-.827-.811a94.754 94.754 0 00-31.35-21.063c-23.977-9.964-53.248-9.626-78.572 2.647-3.159 1.52-6.152 3.379-9.247 5.096a181.46 181.46 0 00-9.224 6.624l-2.592 2.237-.079.087c-9.043 10.673-16.4 23.15-21.307 36.738-10.027 27.097-9.437 58.73 2.308 86.693 2.938 7.058 6.498 13.603 10.823 20.228 2.339 3.245 4.939 6.94 7.231 9.736l7.144 8.034c10.602 10.555 22.78 19.724 36.163 27.018 26.963 14.155 58.841 20.259 89.718 15.336 15.368-2.339 30.681-6.711 44.709-13.95 11.563-5.727 23.473-14.186 33.083-22.693 18.306-20.535 32.421-45.182 39.826-71.893 16.983-59.683-.197-127.701-42.157-171.181-41.354-44.15-99.415-67.19-155.498-67.671-28.034-.274-55.635 4.696-80.604 14.66z" />
	</g>
	<path
		d="M421.54 39.879s4.884 4.836 14.052 13.903c8.948 9.169 21.433 23.962 34.233 44.765 11.981 21.22 24.355 48.9 30.247 83.015 5.884 33.824 6.546 74.224-5.963 115.673-3.206 10.295-6.38 20.89-11.225 31.074-4.049 10.555-9.862 20.48-15.557 30.736-12.28 19.85-27.231 39.432-45.757 56.123-3.923 4.049-9.342 8.137-14.659 12.201l-7.987 6.105-8.31 5.167c-5.553 3.474-11.138 7.018-17.203 9.704-5.986 2.859-11.871 6.089-18.259 8.2-24.97 9.956-52.563 14.935-80.597 14.659-56.084-.48-114.168-23.505-155.475-67.679-41.95-43.465-59.13-111.49-42.139-171.157 8.263-29.877 24.93-57.234 46.505-79.076 10.153-9.98 24.6-20.645 38.321-27.435 14.029-7.255 29.326-11.611 44.717-13.966 30.862-4.923 62.748 1.197 89.71 15.344a159.657 159.657 0 0136.155 27.01l7.152 8.042c2.3 2.788 4.884 6.483 7.231 9.728 4.332 6.64 7.885 13.178 10.823 20.228 11.737 27.971 12.335 59.605 2.292 86.717-4.899 13.572-12.249 26.033-21.307 36.722l-7.136 7.617-.457.48-1.032 1.016-.851.725-1.694 1.481-3.419 2.938a180.567 180.567 0 01-9.232 6.632c-3.088 1.725-6.073 3.584-9.247 5.088-25.309 12.28-54.587 12.619-78.557 2.647a94.459 94.459 0 01-31.35-21.063l-.835-.803-.41-.402c.031.032-1.89-2.079-1.213-1.371l-1.213-1.583-2.434-3.167c-1.631-2.213-3.214-3.907-4.829-6.569a228.55 228.55 0 01-4.655-8.925l-2.174-4.474c-.536-1.481-.851-2.938-1.292-4.419-7.223-23.276-2.883-48.073 9.405-65.898 3.198-4.324 6.94-8.208 10.335-12.123.433-.394-.488.37 1.048-.977l.323-.26.693-.512 1.363-1.024 2.718-2.048c1.804-1.347 3.403-2.725 6.152-4.001 2.497-1.237 5.002-2.473 7.459-3.679 2.458-1.197 4.907-1.481 7.326-2.237 4.789-1.599 9.736-1.686 14.541-1.953 19.456-.496 36.289 9.2 46.458 21.992 1.087 1.489 2.166 2.804 3.19 4.403.945 1.914 1.89 3.812 2.836 5.679 2.127 3.742 2.324 7.499 3.419 11.083.402 3.663.693 7.31.496 10.784-.646 3.45-.52 6.924-1.851 10.004-3.718 12.509-12.477 22.126-21.094 26.183-9.358 4.584-17.975 4.167-24.458 2.725-12.895-4.017-16.707-10.784-16.951-10.295.142-.48 4.97 5.75 17.408 8.09 6.081.756 14.273-.126 21.354-4.663 1.804-.819 3.56-2.647 5.427-4.34l1.378-1.26c-.016-.063.599-.859.866-1.245.701-.985 1.418-1.953 2.143-2.97 2.875-3.986 4.939-8.893 5.986-14.202.914-2.584.41-5.474.74-8.247-.118-2.812-.662-5.695-1.197-8.531-1.166-2.623-1.623-5.892-3.348-8.05l-2.072-3.647c-1-1.284-2.339-2.639-3.497-3.978-8.641-8.696-22.26-15.573-36.596-13.792-3.529.536-7.144.764-10.484 2.292-1.662.677-3.623 1-5.01 1.906a67.066 67.066 0 01-4.285 2.473c-2.497 1.04-7.365 6.113-9.114 7.53-2.237 3.245-4.813 6.27-6.947 9.61-7.979 13.777-9.846 31.673-3.812 47.506.354.969.599 2.048 1.016 2.954l1.449 2.434a71.446 71.446 0 012.655 4.955c1.134 1.788 3.293 3.923 4.892 5.892l2.623 3.001 1.315 1.52c.898.969-.819-.906-.52-.63l.315.276.662.536a67.91 67.91 0 0023.52 13.785c17.416 6.065 37.896 4.907 54.776-4.309 2.119-1.126 4.08-2.521 6.136-3.742l5.159-3.986 3.261-3.096 1.631-1.536.835-.772c.268-.26-.874.788-.252.181l.307-.37 4.994-5.797c6.223-8.105 11.083-17.321 14.163-27.183 6.105-19.692 5.372-42.031-3.474-61.353-2.119-4.797-4.923-9.539-7.782-13.706-1.568-1.938-2.623-3.647-4.458-5.868l-6.018-6.435c-8.216-7.656-17.4-14.21-27.427-19.361-20.228-9.704-43.646-13.832-66.261-10.09-11.232 1.851-22.402 5.033-32.555 10.468-10.492 5.624-18.306 11.146-27.766 20.244-16.605 17.235-29.216 38.384-35.509 61.519-13.336 46.23-1.142 98.619 31.996 133.522 16.14 17.124 36.462 32.012 58.1 41.858 21.78 9.972 45.347 15.415 68.773 16.289 46.868 1.843 92.711-14.935 125.661-42.614 34.107-28.767 57.344-65.505 70.648-102.4 3.537-9.153 5.506-18.645 8.137-27.695 1.402-9.311 3.742-18.33 4.403-27.333.677-8.972 1.953-17.762 1.497-26.348-.039-4.293-.087-8.531-.102-12.705-.032-4.183-.756-8.247-1.095-12.288-3.245-32.327-12.272-59.778-21.945-81.361-10.665-21.15-20.645-36.935-28.672-47.088-8.097-9.991-12.406-15.347-12.406-15.347z"
		fill="#22d0ff" />
	<g fill="#14a2f2">
		<path
			d="M437.483 399.059c11.406-12.642 21.323-26.23 29.846-40.015 5.695-10.264 11.508-20.181 15.557-30.736 4.844-10.185 8.019-20.787 11.225-31.074 9.649-31.972 11.406-63.275 9.035-91.451-.323 3.765-.709 7.546-.992 11.374-.662 9.003-3.009 18.022-4.411 27.333-2.631 9.051-4.6 18.534-8.137 27.695-12.493 34.643-33.879 69.081-64.677 96.981-7.278 8.184-15.21 15.998-23.859 23.308-32.957 27.68-78.793 44.465-125.661 42.614-23.434-.874-47.002-6.325-68.773-16.289-21.638-9.846-41.96-24.741-58.1-41.858-33.146-34.911-45.34-87.292-32.004-133.53 6.294-23.142 18.897-44.284 35.509-61.519 3.285-3.151 6.357-5.766 9.405-8.208 2.702-3.34 5.514-6.601 8.483-9.689 9.46-9.09 17.274-14.612 27.782-20.244 10.138-5.419 21.307-8.609 32.555-10.468 22.615-3.742 46.025.394 66.269 10.09 10.012 5.152 19.196 11.705 27.404 19.361l6.018 6.435c1.843 2.213 2.891 3.923 4.458 5.868 2.851 4.159 5.679 8.909 7.79 13.698 8.838 19.33 9.594 41.661 3.466 61.361-3.064 9.862-7.924 19.078-14.155 27.168l-5.002 5.813-.299.37c-.622.599.512-.449.252-.197l-.843.788-1.615 1.536-3.277 3.096-5.151 3.97c-.118.063-.221.142-.339.197-.544.772-1.048 1.583-1.623 2.339l-4.994 5.797-.307.37c-.622.599.52-.449.252-.181l-.835.772-1.631 1.536-3.261 3.096-5.159 3.986c-2.064 1.213-4.025 2.615-6.136 3.742-16.888 9.216-37.36 10.366-54.776 4.309a67.884 67.884 0 01-23.52-13.785l-.662-.536-.315-.276c-.299-.276 1.426 1.599.52.63l-1.315-1.52-1.827-2.111.142.197 1.221 1.583c-.67-.709 1.237 1.402 1.205 1.371l.417.402.827.803a94.875 94.875 0 0031.35 21.063c23.969 9.972 53.248 9.633 78.572-2.647 3.151-1.52 6.168-3.387 9.24-5.104 2.702-1.804 5.506-3.828 8.097-5.782 8.019-10.043 14.643-21.496 19.125-33.91 10.043-27.112 9.444-58.746-2.292-86.717-2.938-7.058-6.491-13.596-10.823-20.228-2.347-3.245-4.931-6.94-7.231-9.728l-7.152-8.042c-10.594-10.539-22.764-19.708-36.155-27.01-26.963-14.139-58.849-20.259-89.71-15.344-15.392 2.355-30.688 6.711-44.717 13.966-10.153 5.025-20.708 12.186-29.641 19.621-17.069 19.952-30.255 43.536-37.297 68.994-16.983 59.676.197 127.709 42.157 171.166 41.299 44.15 99.383 67.198 155.475 67.679 28.034.26 55.619-4.71 80.581-14.659 6.396-2.127 12.296-5.341 18.267-8.2 6.057-2.694 11.642-6.231 17.195-9.704l8.31-5.183 7.995-6.089c4.535-3.489 8.978-6.978 12.672-10.444z" />
		<path
			d="M292.682 259.953l-.677.63c-1.875 1.694-3.639 3.521-5.427 4.34-1.607 1.016-3.277 1.812-4.962 2.489-.78 1.678-1.654 3.277-2.662 4.766 3.206-.504 6.522-1.355 10.019-3.033a45.884 45.884 0 003.45-8.381c.117-.26.172-.536.259-.811zM202.672 236.369c2.135-3.34 4.71-6.372 6.947-9.61 1.757-1.418 6.617-6.491 9.114-7.53.756-.394 1.465-.843 2.198-1.268 2.048-3.127 4.458-6.034 6.577-9.098 1.764-1.426 6.617-6.491 9.137-7.538a81.322 81.322 0 004.269-2.473c1.213-.796 2.883-1.166 4.387-1.701a55.152 55.152 0 00-7.428-.323c-4.797.268-9.744.354-14.541 1.953-2.418.748-4.86 1.04-7.326 2.237a2014.163 2014.163 0 00-7.459 3.679c-1.906.89-3.245 1.827-4.49 2.765-.071.095-.165.181-.228.284-12.296 17.833-16.636 42.63-9.413 65.898.441 1.481.756 2.938 1.308 4.419l2.158 4.474c.473.953 1.016 1.906 1.497 2.875a32.571 32.571 0 00-.52-1.536c-6.033-15.834-4.166-33.73 3.813-47.507z" />
	</g>
	<g fill="#f4ebc1">
		<ellipse transform="rotate(-135.129 62.624 295.88)" cx="62.624" cy="295.879" rx="13.249" ry="1.205" />
		<ellipse transform="rotate(-44.871 62.683 295.886)" cx="62.685" cy="295.885" rx="13.249" ry="1.205" />
		<ellipse cx="456.238" cy="188.399" rx=".528" ry="5.805" />
		<ellipse cx="456.238" cy="188.406" rx="5.813" ry=".528" />
		<ellipse cx="137.853" cy="119.475" rx=".528" ry="5.805" />
		<ellipse cx="137.853" cy="119.483" rx="5.813" ry=".528" />
		<ellipse transform="rotate(-135.243 350.114 152.5)" cx="350.114" cy="152.499" rx="17.487" ry="1.583" />
		<ellipse transform="rotate(-44.806 350.125 152.448)" cx="350.125" cy="152.446" rx="17.487" ry="1.583" />
		<ellipse cx="308.538" cy="404.352" rx="1.591" ry="17.495" />
		<ellipse cx="308.546" cy="404.352" rx="17.487" ry="1.583" />
		<circle cx="56.988" cy="165.422" r="3.001" />
		<circle cx="391.647" cy="72.222" r="2.993" />
		<circle cx="355.847" cy="236.235" r="5.411" />
		<circle cx="207.453" cy="79.949" r="5.404" />
		<circle cx="429.063" cy="343.054" r="4.206" />
		<path
			d="M142.067 434.292a4.188 4.188 0 01-4.183 4.198 4.192 4.192 0 01-4.222-4.198 4.192 4.192 0 014.222-4.198 4.189 4.189 0 014.183 4.198zM437.026 270.46c0 3.521-2.867 6.388-6.396 6.388a6.379 6.379 0 01-6.396-6.388 6.376 6.376 0 016.396-6.396c3.529-.008 6.396 2.86 6.396 6.396z" />
	</g>
	<circle cx="252.068" cy="252.076" r="14.769" fill="#141160" />
	<path d="M252.068 237.306c8.153 0 14.769 6.609 14.769 14.769 0 8.153-6.617 14.769-14.769 14.769" fill="#00000a" />
</svg>